<?xml version="1.0" standalone="no"?>
<!DOCTYPE svg PUBLIC "-//W3C//DTD SVG 20010904//EN"
 "http://www.w3.org/TR/2001/REC-SVG-20010904/DTD/svg10.dtd">
<svg version="1.0" xmlns="http://www.w3.org/2000/svg"
 width="1030.000000pt" height="600.000000pt" viewBox="0 0 1030.000000 600.000000"
 preserveAspectRatio="xMidYMid meet">

<g transform="translate(0.000000,600.000000) scale(0.100000,-0.100000)"
fill="#000000" stroke="none">
<path d="M2530 3995 c0 -1207 -3 -1776 -11 -1847 -40 -366 -180 -578 -429
-644 -95 -25 -279 -23 -393 5 -259 62 -480 241 -608 494 -21 41 -33 55 -43 50
-18 -11 -905 -783 -911 -793 -8 -13 18 -60 86 -160 156 -229 384 -427 649
-563 195 -101 382 -166 610 -211 207 -41 311 -50 575 -50 323 0 481 21 715 96
583 187 936 670 1050 1437 41 275 43 338 49 1310 l6 953 734 -1830 734 -1831
296 6 c163 3 298 7 300 9 2 2 95 318 207 702 155 534 846 2808 857 2819 1 1
368 -792 816 -1763 l814 -1764 764 0 c748 0 764 0 761 19 -2 11 -487 1208
-1078 2660 l-1075 2640 -912 1 -912 0 16 -44 16 -43 -308 -896 c-170 -493
-311 -894 -314 -892 -2 3 -186 423 -407 933 l-403 927 -513 6 c-282 3 -789 7
-1125 8 l-613 1 0 -1745z"/>
</g>
</svg>
